<?xml version="1.0" encoding="utf-8"?>
<!-- Generator: Adobe Illustrator 16.0.0, SVG Export Plug-In . SVG Version: 6.00 Build 0)  -->
<!DOCTYPE svg PUBLIC "-//W3C//DTD SVG 1.1//EN" "http://www.w3.org/Graphics/SVG/1.1/DTD/svg11.dtd">
<svg version="1.1" xmlns="http://www.w3.org/2000/svg" xmlns:xlink="http://www.w3.org/1999/xlink" x="0px" y="0px"
	 width="3574.343px" height="1560px" viewBox="0 5.999 3574.343 1560" enable-background="new 0 5.999 3574.343 1560"
	 xml:space="preserve">
<g id="Layer_2">
	<rect x="1357.615" y="383.959" fill="none" width="2873.426" height="1377.172"/>
	<text transform="matrix(1 0 0 1 1357.6152 839.9551)" fill="#FCF7F7" font-family="'Verdana'" font-size="600">click</text>
</g>
<g id="Layer_1">
	<g id="XMLID_467_">
		<path id="XMLID_468_" fill="#967151" d="M917.867,1193.36c0,149.676,121.335,271.01,271.01,271.01h299.267
			c149.675,0,271.01-121.334,271.01-271.01l-420.645-67.752L917.867,1193.36z"/>
		<path id="XMLID_469_" fill="#CB9851" d="M200.847,1193.36c0,205.802,166.837,372.639,372.639,372.639h411.491
			c205.801,0,372.639-166.837,372.639-372.639l-578.386-33.876L200.847,1193.36z"/>
		<path id="XMLID_470_" fill="#F0651F" d="M1105.464,442.623c50.452,67.712,80.283,151.66,80.283,242.595
			c0,224.511-182.007,406.514-406.515,406.514L711.48,548.865L779.232,5.999L1105.464,442.623z"/>
		<path id="XMLID_472_" fill="#F58330" d="M779.232,1091.731c-224.511,0-406.515-182.006-406.515-406.514
			c0-90.935,29.831-174.883,80.283-242.595L779.232,5.999V1091.731z"/>
		<path id="XMLID_473_" fill="#FFC052" d="M961.534,627.923c29.188,39.164,44.646,85.974,44.646,135.233
			c0,125.139-101.809,226.947-226.947,226.947l-101.629-303.07l101.629-303.07L961.534,627.923z"/>
		<path id="XMLID_474_" fill="#F9D4A0" d="M779.232,383.959v606.145c-125.139,0-226.947-101.809-226.947-226.947
			c0-49.26,15.458-96.069,44.761-135.38L779.232,383.959z"/>
		<rect id="XMLID_475_" x="711.48" y="763.156" fill="#FFEBCF" width="135.505" height="362.452"/>
		<polygon id="XMLID_476_" fill="#624950" points="1759.153,1091.731 1759.153,1193.36 779.232,1193.36 711.48,1142.546 
			779.232,1091.731 		"/>
		<rect id="XMLID_477_" x="200.847" y="1091.731" fill="#967151" width="578.386" height="101.629"/>
	</g>
</g>
</svg>
